<?xml version="1.0" encoding="iso-8859-1"?>
<!-- Generator: Adobe Illustrator 17.1.0, SVG Export Plug-In . SVG Version: 6.00 Build 0)  -->
<!DOCTYPE svg PUBLIC "-//W3C//DTD SVG 1.1//EN" "http://www.w3.org/Graphics/SVG/1.1/DTD/svg11.dtd">
<svg version="1.1" id="Capa_1" xmlns="http://www.w3.org/2000/svg" xmlns:xlink="http://www.w3.org/1999/xlink" x="0px" y="0px"
	 viewBox="0 0 512 512" style="enable-background:new 0 0 512 512;" xml:space="preserve" fill='white'>
<g>
	<path d="M184,224c4.418,0,8-3.582,8-8s-3.582-8-8-8H40c-4.418,0-8,3.582-8,8s3.582,8,8,8H184z"/>
	<path d="M168,184c8.822,0,16-7.178,16-16s-7.178-16-16-16s-16,7.178-16,16S159.178,184,168,184z"/>
	<path d="M56,72c8.822,0,16-7.178,16-16s-7.178-16-16-16s-16,7.178-16,16S47.178,72,56,72z"/>
	<path d="M112,128c8.822,0,16-7.178,16-16s-7.178-16-16-16s-16,7.178-16,16S103.178,128,112,128z"/>
	<path d="M168,248c-8.822,0-16,7.178-16,16s7.178,16,16,16s16-7.178,16-16S176.822,248,168,248z"/>
	<path d="M168,360c-8.822,0-16,7.178-16,16s7.178,16,16,16s16-7.178,16-16S176.822,360,168,360z"/>
	<path d="M56,248c-8.822,0-16,7.178-16,16s7.178,16,16,16s16-7.178,16-16S64.822,248,56,248z"/>
	<path d="M56,360c-8.822,0-16,7.178-16,16s7.178,16,16,16s16-7.178,16-16S64.822,360,56,360z"/>
	<path d="M488,288H224V24c0-13.233-10.766-24-24-24H24C10.766,0,0,10.767,0,24v384c0,13.233,10.766,24,24,24h56v56
		c0,13.233,10.766,24,24,24h384c13.234,0,24-10.767,24-24V312C512,298.767,501.234,288,488,288z M16,408V24c0-4.411,3.589-8,8-8h176
		c4.411,0,8,3.589,8,8v384c0,4.411-3.589,8-8,8H24C19.589,416,16,412.411,16,408z M496,488c0,4.411-3.589,8-8,8H104
		c-4.411,0-8-3.589-8-8v-56h104c13.234,0,24-10.767,24-24V304h264c4.411,0,8,3.589,8,8V488z"/>
	<path d="M296,320c-4.418,0-8,3.582-8,8v144c0,4.418,3.582,8,8,8s8-3.582,8-8V328C304,323.582,300.418,320,296,320z"/>
	<path d="M248,328c-8.822,0-16,7.178-16,16s7.178,16,16,16s16-7.178,16-16S256.822,328,248,328z"/>
	<path d="M136,440c-8.822,0-16,7.178-16,16s7.178,16,16,16s16-7.178,16-16S144.822,440,136,440z"/>
	<path d="M344,328c-8.822,0-16,7.178-16,16s7.178,16,16,16s16-7.178,16-16S352.822,328,344,328z"/>
	<path d="M456,328c-8.822,0-16,7.178-16,16s7.178,16,16,16s16-7.178,16-16S464.822,328,456,328z"/>
	<path d="M400,384c-8.822,0-16,7.178-16,16s7.178,16,16,16s16-7.178,16-16S408.822,384,400,384z"/>
	<path d="M344,440c-8.822,0-16,7.178-16,16s7.178,16,16,16s16-7.178,16-16S352.822,440,344,440z"/>
	<path d="M456,440c-8.822,0-16,7.178-16,16s7.178,16,16,16s16-7.178,16-16S464.822,440,456,440z"/>
</g>
<g>
</g>
<g>
</g>
<g>
</g>
<g>
</g>
<g>
</g>
<g>
</g>
<g>
</g>
<g>
</g>
<g>
</g>
<g>
</g>
<g>
</g>
<g>
</g>
<g>
</g>
<g>
</g>
<g>
</g>
</svg>
